<svg xmlns="http://www.w3.org/2000/svg" width="1600" height="900" viewBox="0 0 1600 900">
  <defs>
    <linearGradient id="bg" x1="0" x2="1" y1="0" y2="1">
      <stop offset="0%" stop-color="#3b82f6" stop-opacity="0.35"/>
      <stop offset="50%" stop-color="#8b5cf6" stop-opacity="0.35"/>
      <stop offset="100%" stop-color="#06b6d4" stop-opacity="0.35"/>
    </linearGradient>
    <linearGradient id="glow" x1="0" x2="0" y1="0" y2="1">
      <stop offset="0%" stop-color="#ffffff" stop-opacity="0.15"/>
      <stop offset="100%" stop-color="#ffffff" stop-opacity="0"/>
    </linearGradient>
  </defs>
  <rect x="0" y="0" width="1600" height="900" fill="#0b0b0f"/>
  <rect x="0" y="0" width="1600" height="900" fill="url(#bg)"/>

  <!-- Soft vignette -->
  <radialGradient id="v" cx="50%" cy="50%" r="75%">
    <stop offset="0%" stop-color="#000" stop-opacity="0"/>
    <stop offset="100%" stop-color="#000" stop-opacity="0.35"/>
  </radialGradient>
  <rect x="0" y="0" width="1600" height="900" fill="url(#v)"/>

  <!-- Title -->
  <text x="120" y="220" font-family="Inter, system-ui, -apple-system, Segoe UI, Roboto, Helvetica, Arial, sans-serif" font-size="96" font-weight="800" fill="#ffffff">Polygram</text>
  <text x="120" y="290" font-family="Inter, system-ui, -apple-system, Segoe UI, Roboto, Helvetica, Arial, sans-serif" font-size="30" fill="#cbd5e1">Polymarket integrated Telegram Bot</text>

  <!-- Bot mark -->
  <g transform="translate(120, 360) scale(2.2)" opacity="0.85">
    <rect x="0" y="0" width="160" height="100" rx="18" fill="#111827" stroke="#93c5fd" stroke-width="2"/>
    <circle cx="40" cy="45" r="12" fill="#60a5fa"/>
    <circle cx="85" cy="45" r="12" fill="#a78bfa"/>
    <rect x="25" y="70" width="90" height="8" rx="4" fill="#6ee7b7"/>
    <rect x="140" y="20" width="12" height="24" rx="6" fill="#93c5fd"/>
    <rect x="8" y="20" width="12" height="24" rx="6" fill="#a78bfa"/>
  </g>

  <!-- Bottom glow line -->
  <rect x="120" y="760" width="1360" height="2" fill="url(#glow)"/>

  <!-- Footer label -->
  <text x="120" y="820" font-family="Inter, system-ui, -apple-system, Segoe UI, Roboto, Helvetica, Arial, sans-serif" font-size="24" fill="#9ca3af">Preview • 2025</text>
</svg>